<svg width="197" height="28" viewBox="0 0 197 28" fill="none" xmlns="http://www.w3.org/2000/svg">
<path fill-rule="evenodd" clip-rule="evenodd" d="M11.1586 22.7876H6.37494L9.53215 6.09954H14.0288L13.4866 8.98786C14.9536 6.74139 16.2611 5.61815 18.653 5.61815C19.9286 5.61815 20.7578 5.8428 21.4275 6.45256L19.9286 10.7529C19.3227 10.432 18.653 10.1111 17.6644 10.1111C14.9217 10.1111 13.1677 12.1329 12.5618 15.3742L11.1586 22.7876ZM28.7627 21.0546C27.1044 22.7234 25.5736 23.269 23.5964 23.269C20.5986 23.269 18.3981 21.6323 19.0041 18.5514C19.6738 14.957 22.4164 13.6092 26.5303 13.1278C28.2843 12.9352 29.3367 12.7427 30.2297 12.3576L30.3254 11.9725C30.5167 10.8813 30.1659 9.53343 28.1568 9.53343C26.3071 9.53343 25.3504 10.785 24.8082 12.0045L21.0132 10.6567C22.5759 6.80557 26.052 5.61815 29.1454 5.61815C33.3869 5.61815 35.9701 7.5437 34.9496 12.7106L33.7058 19.3858C33.355 21.0867 33.5464 22.1778 34.0247 22.7876H29.2092C28.7627 22.3704 28.7308 21.6002 28.7627 21.0546ZM29.273 17.4928L29.6876 15.2463L29.6326 15.2657L29.6326 15.2657C29.0036 15.4875 28.2052 15.769 26.5941 16.0807C25.0634 16.3696 24.011 16.9151 23.8196 18.2309C23.7239 18.9691 24.011 19.6751 25.3823 19.6751C26.8811 19.6751 28.5076 18.616 29.273 17.4928ZM35.2049 17.9737L39.287 17.2998C39.2232 18.744 40.435 19.5784 42.2209 19.5784C43.5285 19.5784 45.2506 19.2574 45.5057 17.9095C45.6651 17.1393 45.1549 16.7542 44.4852 16.5938L40.1161 15.7273C38.0113 15.2459 36.4168 13.7054 36.9589 10.9455C37.6924 7.1265 41.1366 5.61815 44.8679 5.61815C48.8224 5.61815 51.278 7.9609 50.4807 11.459H46.3668C46.7494 9.75808 45.1868 9.30878 44.0068 9.30878C42.6993 9.30878 41.2323 9.69389 41.0091 10.8171C40.8815 11.3627 41.1685 11.812 41.9977 11.9725L46.2711 12.7748C47.9932 13.1599 50.3531 14.3473 49.6834 17.7812C48.9818 21.4718 45.697 23.269 41.4236 23.269C37.3735 23.269 34.9179 21.0225 35.2049 17.9737ZM59.5053 18.7441L59.0588 22.5631C58.3572 22.9161 56.5394 23.1087 55.9335 23.1087C52.4574 23.1087 51.4688 21.1831 52.0747 17.9097L53.6374 9.9187H51.2774L51.979 6.0997H54.339L54.9768 2.66581L60.0474 1.28584L59.1226 6.0997H62.2798L61.5782 9.9187H58.421L57.1454 16.4655C56.8583 17.9097 56.667 18.9367 58.1659 18.9367C58.4848 18.9367 58.9631 18.9046 59.5053 18.7441ZM76.1207 18.2626C74.2392 21.5681 71.4647 23.269 67.4783 23.269C63.2049 23.269 59.7607 20.6053 60.9406 14.4436C62.1206 8.28182 66.6172 5.61815 70.8587 5.61815C74.2711 5.61815 77.6515 7.15859 77.4283 11.0418C77.2369 14.7003 74.1754 15.8235 70.2528 15.8235H65.4691C65.1502 18.1342 66.4259 19.2574 68.5626 19.2574C70.0933 19.2574 71.2414 18.3909 71.8155 17.3319L76.1207 18.2626ZM69.9657 9.62983C68.3711 9.62983 66.7128 10.721 66.1706 12.5502H70.5397C71.7516 12.5502 72.517 11.9726 72.4851 11.0419C72.4532 10.0791 71.2094 9.62983 69.9657 9.62983ZM150.709 18.1483C148.828 21.4538 146.053 23.1547 142.067 23.1547C137.794 23.1547 134.349 20.491 135.529 14.3293C136.709 8.16755 141.206 5.50387 145.447 5.50387C148.86 5.50387 152.24 7.04431 152.017 10.9275C151.826 14.586 148.764 15.7093 144.841 15.7093H140.058C139.739 18.0199 141.015 19.1432 143.151 19.1432C144.682 19.1432 145.83 18.2767 146.404 17.2176L150.709 18.1483ZM144.554 9.51514C142.959 9.51514 141.301 10.6063 140.759 12.4355H145.128C146.34 12.4355 147.105 11.8579 147.073 10.9272C147.041 9.96443 145.798 9.51514 144.554 9.51514ZM81.2871 22.7876H76.5034L79.6606 6.09954H84.1572L83.6151 8.98786C85.0821 6.74139 86.3896 5.61815 88.7814 5.61815C90.0571 5.61815 90.8862 5.8428 91.556 6.45256L90.0571 10.7529C89.4511 10.432 88.7814 10.1111 87.7928 10.1111C85.0502 10.1111 83.2962 12.1329 82.6903 15.3742L81.2871 22.7876ZM97.8385 22.788H93.597L91.7473 6.09993H96.5628L97.0412 17.3965L101.984 6.09993H106.162L106.768 17.0434L111.711 6.09993H116.335L108.012 22.788H103.834L103.069 11.5877L97.8385 22.788ZM121.677 4.46258H116.814L117.689 0H122.552L121.677 4.46258ZM118.376 22.788H113.593L116.75 6.09993H121.533L118.376 22.788ZM120.257 17.9737L124.339 17.2998C124.276 18.744 125.488 19.5784 127.273 19.5784C128.581 19.5784 130.303 19.2574 130.558 17.9095C130.718 17.1393 130.207 16.7542 129.538 16.5938L125.169 15.7273C123.064 15.2459 121.469 13.7054 122.011 10.9455C122.745 7.1265 126.189 5.61815 129.92 5.61815C133.875 5.61815 136.33 7.9609 135.533 11.459H131.419C131.802 9.75808 130.239 9.30878 129.059 9.30878C127.752 9.30878 126.285 9.69389 126.062 10.8171C125.934 11.3627 126.221 11.812 127.05 11.9725L131.324 12.7748C133.046 13.1599 135.406 14.3473 134.736 17.7812C134.034 21.4718 130.75 23.269 126.476 23.269C122.426 23.269 119.97 21.0225 120.257 17.9737ZM4.86238 22.7912H0L0.875228 18.3286H5.7376L4.86238 22.7912ZM151.339 22.8101H156.201L157.077 18.3475H152.214L151.339 22.8101Z" fill="#101010"/>
<path d="M165.463 21.8007L167.271 11.3413H169.577L167.41 23.8535H165.349L165.463 21.8007ZM160.445 19.6176L160.461 19.4384C160.532 18.9008 160.657 18.3577 160.836 17.8092C161.021 17.2607 161.271 16.7611 161.586 16.3103C161.906 15.8596 162.3 15.5012 162.767 15.2351C163.234 14.969 163.788 14.8468 164.428 14.8685C164.977 14.8902 165.43 15.045 165.789 15.3328C166.147 15.6152 166.424 15.9818 166.62 16.4325C166.821 16.8778 166.956 17.353 167.027 17.8581C167.103 18.3577 167.133 18.8329 167.117 19.2836L167.076 19.6746C166.989 20.158 166.842 20.6576 166.636 21.1735C166.435 21.684 166.172 22.1592 165.846 22.599C165.525 23.0335 165.143 23.3838 164.697 23.6499C164.257 23.916 163.755 24.0409 163.19 24.0246C162.598 24.0083 162.112 23.8644 161.732 23.5928C161.357 23.3159 161.067 22.9602 160.861 22.5257C160.654 22.0913 160.521 21.6188 160.461 21.1083C160.402 20.5978 160.396 20.1009 160.445 19.6176ZM162.767 19.4303L162.75 19.6013C162.729 19.8348 162.715 20.0982 162.71 20.3915C162.71 20.6793 162.74 20.959 162.799 21.2305C162.864 21.4966 162.981 21.7193 163.15 21.8985C163.323 22.0723 163.573 22.1673 163.899 22.1836C164.312 22.1999 164.667 22.1048 164.966 21.8985C165.265 21.6867 165.504 21.4152 165.683 21.0839C165.868 20.7526 165.99 20.4051 166.05 20.0412L166.204 18.9578C166.231 18.708 166.231 18.4554 166.204 18.2002C166.177 17.945 166.115 17.706 166.017 17.4834C165.925 17.2607 165.783 17.0788 165.593 16.9376C165.409 16.7964 165.167 16.7231 164.868 16.7176C164.504 16.7013 164.195 16.7801 163.94 16.9539C163.69 17.1222 163.486 17.3449 163.329 17.6218C163.171 17.8934 163.046 18.1893 162.954 18.5098C162.867 18.8302 162.805 19.137 162.767 19.4303ZM169.56 19.585L169.585 19.414C169.65 18.7894 169.799 18.2029 170.033 17.6544C170.272 17.1005 170.587 16.6145 170.978 16.1963C171.374 15.7727 171.839 15.4442 172.371 15.2106C172.908 14.9717 173.511 14.8604 174.179 14.8767C174.815 14.8875 175.363 15.0151 175.825 15.2595C176.286 15.5039 176.664 15.8324 176.957 16.2452C177.256 16.6579 177.465 17.1304 177.584 17.6626C177.709 18.1948 177.744 18.7569 177.69 19.3488L177.674 19.528C177.603 20.1471 177.446 20.7309 177.201 21.2794C176.962 21.8225 176.645 22.3031 176.248 22.7212C175.857 23.134 175.393 23.4571 174.855 23.6906C174.318 23.9241 173.72 24.0327 173.063 24.0164C172.439 24.0056 171.893 23.8807 171.426 23.6417C170.959 23.3973 170.579 23.0715 170.285 22.6642C169.992 22.2515 169.786 21.7817 169.666 21.2549C169.547 20.7282 169.512 20.1715 169.56 19.585ZM171.874 19.414L171.858 19.5932C171.83 19.8538 171.822 20.1335 171.833 20.4322C171.844 20.7255 171.89 21.0051 171.972 21.2712C172.059 21.5373 172.2 21.7546 172.395 21.9229C172.591 22.0913 172.86 22.1809 173.202 22.1917C173.566 22.2026 173.878 22.1293 174.138 21.9718C174.399 21.8143 174.614 21.6025 174.782 21.3364C174.95 21.0649 175.083 20.7716 175.181 20.4566C175.279 20.1362 175.344 19.824 175.377 19.5199L175.393 19.3488C175.415 19.0881 175.42 18.8084 175.409 18.5098C175.404 18.2056 175.358 17.9205 175.271 17.6544C175.184 17.3829 175.043 17.1602 174.847 16.9865C174.652 16.8127 174.383 16.7204 174.041 16.7095C173.677 16.6932 173.365 16.7692 173.104 16.9376C172.843 17.1005 172.629 17.3177 172.46 17.5893C172.292 17.8608 172.159 18.1568 172.061 18.4772C171.969 18.7976 171.906 19.1098 171.874 19.414ZM182.162 22.1917C182.45 22.1972 182.705 22.1429 182.928 22.0288C183.156 21.9148 183.343 21.7546 183.49 21.5482C183.637 21.3418 183.734 21.1029 183.783 20.8314L185.942 20.8232C185.893 21.4803 185.681 22.0505 185.307 22.5339C184.937 23.0172 184.468 23.3892 183.897 23.6499C183.333 23.9105 182.732 24.0327 182.097 24.0164C181.462 24.0056 180.916 23.878 180.46 23.6336C180.009 23.3892 179.645 23.0634 179.368 22.6561C179.091 22.2433 178.896 21.7736 178.782 21.2468C178.673 20.72 178.646 20.1661 178.7 19.585L178.725 19.3406C178.79 18.7324 178.936 18.1568 179.165 17.6137C179.393 17.0652 179.697 16.5846 180.077 16.1719C180.462 15.7537 180.916 15.4306 181.437 15.2025C181.959 14.969 182.548 14.8604 183.205 14.8767C183.884 14.8875 184.465 15.0423 184.948 15.341C185.431 15.6342 185.798 16.0361 186.048 16.5466C186.303 17.0571 186.425 17.6436 186.414 18.3061L184.264 18.298C184.269 18.0319 184.234 17.7793 184.158 17.5404C184.082 17.296 183.952 17.1005 183.767 16.9539C183.588 16.8018 183.343 16.7176 183.034 16.7013C182.67 16.6905 182.366 16.7665 182.122 16.9294C181.877 17.0869 181.679 17.3014 181.527 17.573C181.375 17.8391 181.258 18.1296 181.177 18.4446C181.095 18.7541 181.038 19.0555 181.006 19.3488L180.989 19.585C180.962 19.8294 180.946 20.1009 180.94 20.3996C180.935 20.6929 180.965 20.9753 181.03 21.2468C181.095 21.5129 181.215 21.7356 181.388 21.9148C181.568 22.0886 181.826 22.1809 182.162 22.1917ZM191.848 21.369C191.891 21.1083 191.826 20.9074 191.652 20.7662C191.479 20.6196 191.264 20.5082 191.009 20.4322C190.759 20.3562 190.542 20.2964 190.357 20.253C190.031 20.1661 189.703 20.0575 189.371 19.9272C189.046 19.7914 188.75 19.623 188.484 19.4221C188.217 19.2212 188.006 18.9768 187.848 18.689C187.691 18.3957 187.62 18.0509 187.636 17.6544C187.653 17.182 187.772 16.7719 187.995 16.4244C188.223 16.0714 188.516 15.7809 188.875 15.5528C189.233 15.3192 189.624 15.1455 190.048 15.0314C190.471 14.9174 190.892 14.8658 191.31 14.8767C191.897 14.8821 192.44 14.9907 192.939 15.2025C193.444 15.4143 193.852 15.7293 194.161 16.1474C194.476 16.5656 194.634 17.0869 194.634 17.7114L192.361 17.7033C192.366 17.4644 192.328 17.2553 192.247 17.0761C192.166 16.8969 192.041 16.7584 191.872 16.6606C191.704 16.5629 191.489 16.514 191.229 16.514C191.022 16.514 190.816 16.5547 190.61 16.6362C190.409 16.7122 190.235 16.8263 190.088 16.9783C189.942 17.1304 189.849 17.3177 189.811 17.5404C189.779 17.725 189.806 17.8771 189.893 17.9966C189.98 18.116 190.096 18.2138 190.243 18.2898C190.39 18.3604 190.544 18.4201 190.707 18.469C190.87 18.5125 191.017 18.5478 191.147 18.5749C191.625 18.6998 192.092 18.86 192.548 19.0555C193.005 19.251 193.377 19.5253 193.664 19.8783C193.952 20.2258 194.085 20.6902 194.064 21.2712C194.047 21.7654 193.917 22.189 193.673 22.542C193.428 22.8896 193.113 23.1747 192.728 23.3973C192.347 23.6146 191.935 23.7721 191.489 23.8698C191.05 23.973 190.618 24.0219 190.194 24.0164C189.602 24.0056 189.046 23.8861 188.524 23.658C188.008 23.4299 187.59 23.0987 187.27 22.6642C186.949 22.2243 186.786 21.6867 186.781 21.0513L188.932 21.0594C188.937 21.3418 188.994 21.5808 189.103 21.7763C189.211 21.9718 189.366 22.1211 189.567 22.2243C189.773 22.3221 190.018 22.3709 190.3 22.3709C190.523 22.3764 190.743 22.3465 190.96 22.2813C191.183 22.2162 191.375 22.1103 191.538 21.9636C191.701 21.8116 191.804 21.6134 191.848 21.369Z" fill="#101010"/>
</svg>
